<svg xmlns="http://www.w3.org/2000/svg" xmlns:xlink="http://www.w3.org/1999/xlink" viewBox="0 0 656.99 523.43"><defs><linearGradient id="a" x1="870.8" y1="1161.82" x2="1204.09" y2="1161.82" gradientUnits="userSpaceOnUse"><stop offset="0.07" stop-color="#3b64af"/><stop offset="0.87" stop-color="#ac334b" stop-opacity="0.7"/></linearGradient><linearGradient id="b" x1="1346.76" y1="1172.47" x2="1528.79" y2="1172.47" gradientUnits="userSpaceOnUse"><stop offset="0.17" stop-color="#ac334b" stop-opacity="0.7"/><stop offset="1" stop-color="#0344fb"/></linearGradient><linearGradient id="c" x1="953.78" y1="920.33" x2="1328.12" y2="920.33" gradientUnits="userSpaceOnUse"><stop offset="0" stop-color="#1543e7"/><stop offset="1" stop-color="#ac334b" stop-opacity="0.7"/></linearGradient><linearGradient id="d" x1="1325.42" y1="906.92" x2="1522.17" y2="906.92" xlink:href="#c"/></defs><path d="M870.89,1144.5c1.73-.94,1.57-2.8,2-4.31,4.05-13,9.27-25.32,17.68-36.14,2.47-3.18,5-6.3,8.58-8.26,2.91-1.61,2.88-3,.67-5.27-14.14-14.72-23.06-32.06-25.63-52.42a185.63,185.63,0,0,1-1.59-23.92c.08-23-.62-46,.41-68.92,1.52-33.54,11.87-64.74,29.26-93.36,7.22-11.88,17.91-21,28.9-29.49,5.4-4.16,9-8.81,10.83-15.66,6.09-22.79,18.44-42.49,33.54-60.16,13.53-15.84,31.53-26,50.88-33.41,24.42-9.34,49.81-13.6,75.92-11.51,13.57,1.08,27,4,40.54,5.53a211.12,211.12,0,0,1,57.88,14.64c7.52,3.13,14.8,6.85,22.13,10.43,2.17,1.05,3.52,1,5.61-.7,20.17-16.64,42.36-28.93,69.31-29.55,20.15-.47,40.39-.53,60.05,4.73a172.11,172.11,0,0,1,50,22.1c12.22,8,17.83,19.78,20.81,33.36,1.14,5.2.57,11.81,3.63,15.26s9.93.62,15.12.87c25,1.25,42.26,14.32,54.44,35.26,2.54,4.36,4.22,9.32,10.47,10.12,2.49.32,4,2.78,4.7,5.38,1.49,5.48,2.91,11.09,2.34,16.71a19.09,19.09,0,0,0,2,9.92c6.71,14.7,4.85,29.59,1.89,44.57-1.19,6-2.37,12.09-4.56,17.88-.48,1.26-.92,2.49,0,3.77,7,9.43,2.22,18.2-2.93,25.7-3.64,5.3-5.1,12.3-10.51,16.05-5.8,4-5.17,8.48-3.38,14.12,1.1,3.44,4.27,7.49-1,10.84,1,.48,1.38.89,1.73.84,12.92-2,20.69,3.43,23.41,16.33.21,1-.25,2.5,1.49,2.72v3c-1.79.18-1.83,1.49-2,2.86-2,13.69-5.68,17.36-19.7,19.29-2.17.3-2.78.6-2.09,3,2.74,9.39-2.69,17.8-12.36,19.28a40.62,40.62,0,0,1-8,.32c-2.86-.13-4.45.4-5.08,3.76-1,5.23-1.85,10.46-2.62,15.73-2.11,14.54-7.83,26.67-22.11,33.25-4,1.81-8,3.69-11.63,6.86,10.58,5.25,20.11,11.49,31,14.85,11.23,3.47,21.37,9.07,31.27,15.28,8.47,5.32,15.29,12.64,23.3,18.5v5c-2.38.66-3-1.61-4.13-2.71-12.69-12.25-26.69-22.73-43.2-29-12.3-4.71-24.47-9.54-35.84-16.19-3.17-1.86-5.16-1.56-7.29,1.7-6.89,10.54-16.86,17.16-28.36,21.92-11.76,4.87-24.14,7.35-36.4,10.34-1.6.39-3.51.28-3.47,2.68.07,4-1.48,7.47-3,11-.73,1.67-.72,2.58,1.48,3.13,9.73,2.41,12.73,8,9.49,17.67a46.39,46.39,0,0,1-14.38,20.62c-5.53,4.73-11.22,9.27-16.84,13.9h-6c-.29-1.49.91-2,1.8-2.69,6.16-4.81,12.49-9.42,18.47-14.45,6.77-5.69,11.72-12.76,13.71-21.53.82-3.63.17-7.36-3.68-8.89s-7.57-1.35-10,2.9a19.08,19.08,0,0,1-6,6.62c-8.76,5.75-17.64,11.34-26.51,16.93-1.35.86-3.28,2.22-4.45.45-1.42-2.19,1-3.15,2.42-4.08,8-5.14,16.13-10,24-15.35,8.76-6,12.77-15.09,15.22-25,.51-2.07.94-5-2-6s-4.5.94-5.73,3.39c-2.36,4.71-6.22,8.2-10,11.75-1,1-2.38,1.6-3.55.45-1.34-1.3-.12-2.41.74-3.4.66-.75,1.41-1.42,2.11-2.13,12.43-12.61,15.39-27.58,10.54-44.22-3.62-12.42-8.79-15.2-21.64-12.94-3.73.66-5.4,2.14-5.61,6.11a61.84,61.84,0,0,1-8.6,28.41c-.67,1.13-1.28,2.68-2.94,2-1.84-.77-1.44-2.4-.8-3.85s1.27-2.71,2-4c5.81-10.59,6.51-22.22,6.8-33.91a14.71,14.71,0,0,0-1.68-6.23c-5.17-11.86-22.66-14.64-33-9.72-1.75.83-2.26,2.34-2.53,4-2.2,13.57-9,25.31-14.71,37.52a8.08,8.08,0,0,1-6,4.81,138,138,0,0,1-26.25,2.86,20.35,20.35,0,0,1-12.68-3.92c-1-.69-1.8-1.6-1.3-3,.34-1,1.18-1.09,2-.88s2.07,1.79,2.74-.21c.45-1.34-.65-2.16-1.54-2.89a42.46,42.46,0,0,1-9.17-9.8c-1.75-2.72-2.78-2-4.15.32-5.67,9.41-11.93,18.45-18,27.6-7.33,11.11-5.24,21.89,2.65,30.43,5.92,6.4,6.77,13.89,4.21,21.88-1.54,4.8-4.47,8.85-7.61,12.8-4.61,5.79-10.16,10.91-13.33,17.78h-5c-.44-2.35,1.58-3.43,2.66-4.93,5.64-7.82,12.75-14.54,17.57-23,4.73-8.25,3.92-15.27-2.2-22.48-1.39-1.64-3.15-3.28-3.75-5.23-1.6-5.22-4.78-5.88-9.89-5.74a862.68,862.68,0,0,1-90.81-2.37c-33.51-2.62-66.92-5.92-99.84-13.13-25.91-5.68-50.69-14-72.59-29.42-6.27-4.41-12.78-8.86-16.39-15.81-2.43-4.67-4.35-3.87-7.23-1-6.67,6.7-11.41,14.68-15.32,23.21-4.4,9.57-7.13,19.69-9.86,29.81-.33,1.2.41,3.49-2.27,3.06Zm39.37-44.37c-.33-.33-.69-.79-1.07-.12-.08.12.28.49.44.74.9,2.88,3.26,4.61,5.32,6.48,17.17,15.58,37.77,24.86,59.69,31.11,42.13,12,85.54,16,129,19.05,11.94.84,23.92,1.48,35.89,1.71,16.14.32,32.3.16,48.45.19,1.33,0,3.07,0,2.87-1.86-.85-7.93,3.22-14.06,7.11-20.29,1.5-2.4.93-3.54-2-3.8-9.43-.82-18.84-2-28.28-2.67-23-1.72-45.92-.18-68.87,0-7.16,0-14.35-.19-21.48.3-12.5.88-24.93,0-37.36-1-13-1.09-25.57-4.24-38.35-6.4-17.68-3-35.43-5.63-52.87-10C935.53,1110.18,922.6,1106.05,910.26,1100.13Zm24.39-274.75a8.11,8.11,0,0,0-1.78.85c-15.54,12.64-29,26.91-36.92,45.75-9.38,22.2-17.85,44.87-18.62,69-1,31.09-2,62.28.65,93.36,2.56,30.32,23,63.24,58.52,71.66,21.87,5.18,43.78,9.85,66,13.47,15.1,2.47,30,6.39,45.34,6.93,24.48.87,49,.18,73.42-.51,25.15-.72,50.27,0,75.25,3.38,3.87.52,6.48-.13,8.6-3.81,3.16-5.46,6.87-10.61,10.51-15.78,1.2-1.71,1.55-2.94.36-4.89-5.21-8.52-10.35-17.08-15.25-25.78-2-3.5-4.46-4.75-8.45-4.47-6.8.48-13.64.74-20.45.58-13.64-.33-27.27-1-40.91-1.53-22.4-.81-44.06-4-65.2-12.7-32.29-13.36-59.34-33.39-82-59.46-23.38-26.89-33.75-58.85-33.9-94.24-.14-33.22,10-64.16,21.25-94.88,9.15-24.86,23.31-45.44,45-61.42,33-24.42,68.07-42.49,110.59-41.58a187.31,187.31,0,0,0-22.92-3.57,173.76,173.76,0,0,0-74,10.68c-17.66,6.6-34.19,15.44-47.22,29.12a158.63,158.63,0,0,0-37.58,65.65c-4.17,14.2-8.19,28.48-14.12,42.1a56.87,56.87,0,0,1-2.9,5.79,1.85,1.85,0,0,1-2.55.88,2,2,0,0,1-.93-2.56c.38-1.1,1-2.12,1.39-3.2,3.67-9.27,8-18.3,9.56-28.29.32-.32.64-.67.09-1C935.22,824.87,934.88,825.22,934.65,825.38Zm237.63,245.36c3.5,0,7.13.61,10.47-.11,14.3-3.1,21.44,3.88,27.42,16.13,7.13,14.59,16,28.48,29.5,38.49,1.34,1,2.45,2.25,4.31,2.24,6.49,0,13,.2,19.47-.18,2.62-.15,5.74-.29,7.27-3.46,6-12.44,12.39-24.72,14.72-38.56.29-1.71.55-3.36-.89-4.64-7.33-6.48-10.21-15.89-15.62-23.64-1.33-1.9-1.83-3.63.36-5.65,5.38-5,10.54-10.16,15.73-15.32,16.07-16,25.6-35.66,30.72-57.33,4.32-18.25,7.73-36.76,10.52-55.31a167,167,0,0,0,1-42.33c-2.82-26.72-11.56-51.69-25.11-74.69-13-22.06-29-41.59-51.14-55.69-14.31-9.12-30.08-14.87-45.27-21.88-20.22-9.32-41-16.59-64.14-15.59-21.5.92-43,.95-63.64,7.9-22.46,7.59-42.18,20.27-60.92,34.62-13.51,10.36-25.56,22-33,37.54-14.22,29.9-24.51,61.1-28.89,94a144.47,144.47,0,0,0,15.78,88.48c10.76,20.3,26.83,36.12,44.54,50.45,12.88,10.42,26.33,19.78,41.74,26.1,13.67,5.61,26.93,12.34,41.86,14.33C1123.37,1069.89,1147.83,1070.2,1172.28,1070.74Zm135-365.07c-5.32.27-10.65.38-16,.84-21.75,1.91-39.5,13-56.89,24.93-3.54,2.41-2.68,3.87.92,5.65,9.7,4.79,19.41,9.85,27.74,16.74,20.24,16.73,36.7,36.64,48,60.57,1.35,2.87,2.39,5.8,6.72,5.19,16.82-2.4,33.6-4.79,49.3-11.91,13.79-6.26,26.45-14.8,40.77-20,5.63-2.05,11.15-4.39,16.77-6.47,2.42-.9,3.39-2.12,2.72-4.87-1.31-5.32-2.17-10.75-3.39-16.1-2.92-12.73-9.22-23.11-21-29.61-4.66-2.58-9.17-5.45-13.92-7.83C1363.35,709.91,1335.9,705.09,1307.3,705.67Zm65,421.86a25.39,25.39,0,0,0,3.49,0c26.26-3.62,52.16-8.1,75.69-21.75,9-5.19,15-11.76,18.39-21.23,2.36-6.51,2.18-13.42,3.54-20.09,2-9.69,4.47-9-8-11-14.66-2.34-29.53-2-44.23-3.79-15.76-2-31.67-2.3-47.29.35-29.36,5-58.9,8.55-88.38,12.6-8,1.1-8.16,1.22-3.72,8,4,6.15,7.76,10.62,17.37,8.52,13.12-2.86,28.09,4,31.1,20.24.65,3.52,2.47,3.21,4.91,2.83,15.3-2.39,21.75,1.76,26.14,16.79C1363.75,1127.46,1363.75,1127.46,1372.27,1127.53Zm71.47-345.06c-3.44,0-6.93-.15-10.37.75A168.27,168.27,0,0,0,1391,800.3a170.36,170.36,0,0,1-69.51,23c-5.28.54-5.1,2.13-3.4,6,7.37,16.9,11.37,34.71,13.61,52.94.36,2.89.94,3.89,3.91,2.66,18.46-7.62,37.41-14.53,53.6-26.39,21.93-16,46.74-24.31,72.77-29.93a259.35,259.35,0,0,1,35-5.26c1.81-.14,6.2.79,3.72-3.81C1488.41,796.92,1471.06,782.05,1443.74,782.47ZM1490,938c14.93-7.87,26.83-17,28.71-34.6.48-4.45,1.94-8.79,2.48-13.24,1.46-12.15,2.3-24.24-5.37-35.07a8.08,8.08,0,0,0-5.59-3.58c-10.54-2-20.86-.27-31.26,1.22-22.25,3.19-43.81,8.18-63,20.71-25,16.34-52.32,27.62-81.1,35.37-2.93.79-3.48,2.45-3.58,5-.47,12.36-2.79,24.46-5.59,36.44-.86,3.69.17,5,3.5,6,19,5.75,38.68,6.36,58.32,7,1.86.07,3.27,0,2.56-2.7-1.27-4.84-.21-9.6,1.32-14.22,5.3-16,12.23-31.39,21.71-45.35,9.15-13.47,21.93-23.07,37.59-27.47,14-3.94,27.94.38,33,16.53C1488.6,905.44,1491.38,921,1490,938Zm-57.47,53.61c.14,1.21,1,1.42,1.72,1.84,1.29.79,3,1.64,1.84,3.38-1,1.49-2.7.81-4.08.14-9.65-4.64-17.78-11.71-27-17a2.25,2.25,0,0,1-.92-3.41c.87-1.24,2.13-.64,3.13,0,3.13,1.89,6.48,3.54,9.28,5.85,5.45,4.49,11.92,5.44,18.35,4.81,17.37-1.71,34-6.1,49.09-15.42a92.85,92.85,0,0,1,12.43-6.39c3.37-1.45,6.24-3.37,7.92-6.53,3-5.7,6.82-10.86,10.26-16.27a24.78,24.78,0,0,0,3.41-13.39,4.69,4.69,0,0,0-2.4-4.14c-1.08-.65-1.92.24-2.52,1-7,8.76-16.91,13.36-26.24,18.73-23.31,13.41-48.26,21.16-75.34,22.22-12,.47-24,0-35.92-.22-15.68-.3-31.26-1.75-46.3-6.42-4.58-1.42-5.87-.11-6.39,4.11a130.46,130.46,0,0,1-10.92,38.75c-.55,1.18-1.74,2.57-1,3.71,1.1,1.59,2.73.21,4.09-.1,22.53-5,45.24-7.23,68.35-5.53,11.76.87,23.61,2.36,35.39,1,9.56-1.09,18.9.14,28.34.87,13.32,1,26.62.7,39.65-2.79,2.78-.75,5.31-1.62,5-5.55a7.17,7.17,0,0,1,3.5-6.33c4.46-2.81,4.44-6.42,2.67-10.65a10.62,10.62,0,0,1-1-3.35c-.28-4.54-2.26-4.1-5.39-2.25-12.23,7.19-24.83,13.48-38.95,16.26C1446,989.78,1439.28,990.76,1432.54,991.57ZM1298,1028.2c2.8.49,4.87-.78,7-1.53a128.58,128.58,0,0,1,43.6-7.05,187.2,187.2,0,0,1,52.13,7.61c22.29,6.53,44.94,6.34,67.79,4.71,12.25-.87,24.41-3,36.8-2.3,5.29.31,10.39-1.42,13.72-5.88,7-9.37,4.27-23.52-5.46-29.75-4.06-2.6-10.86-1.83-13.5,2.12-3.24,4.83-7.93,7-13.16,8.28-13.71,3.35-27.6,3.82-41.62,2.44-7.1-.7-14.26-2.11-21.39-1.12-13.17,1.84-26.27.44-39.34-.51a226.15,226.15,0,0,0-75.08,7.14,4.33,4.33,0,0,0-2.9,1.72C1303.73,1018.72,1300.91,1023.36,1298,1028.2Zm48.5-4.66c-16.55-1.62-34.25,5.47-52.4,10a5.82,5.82,0,0,0-2.46,1.58q-8,7.88-15.92,15.85c-1.68,1.7-3.16,3.43-1.72,6.13s3.67,2.62,6,2.33c4.45-.56,8.9-1.15,13.32-1.94,18.81-3.36,38-3.93,56.75-7.8a247.38,247.38,0,0,1,49.48-5.34c11.86,0,23.53,1.76,35.3,2.53,10.43.68,20.9,1,31.28,2.55,7.37,1.13,14.57,3.34,22.17,3.07,5.68-.2,9.46-2.94,11.83-7.74,2.83-5.72-.93-11.61-7.18-11.19-8.62.58-17.21,1.56-25.83,2.19-21.29,1.57-42.53,1.93-63.39-3.85C1385.88,1027,1367.84,1023.36,1346.47,1023.54ZM1331.88,897c0,8.76-.11,8.51,7.59,6.32,27-7.65,51.83-19.63,75.79-34.06,29.68-17.87,62.41-23.77,96.74-21.56,2.64.17,3.9-.42,3.56-3.09-.47-3.79-.89-7.6-1.67-11.33-1.27-6-2.89-7.14-9-6.62a328.07,328.07,0,0,0-42.44,6.08c-21.22,4.64-42.44,10-60.45,22.53-19.87,13.85-41.35,24.15-63.69,32.92C1333.43,890.09,1330.35,892.12,1331.88,897Zm101.66,223c-10,2.63-19.91,4.78-29.78,7-12.15,2.67-24.25,5.62-36.86,4.72-2.12-.15-3.3.44-3.52,3-.31,3.62-1.19,7.2-1.82,10.79-.18,1-1.29,2.64.35,3,3.88.75,6.92,4.85,11.64,2.51,2.15-1.06,4.86-1,7.29-1.54,14.31-3.28,28.44-7.08,40.66-15.71C1426.51,1130.14,1430.86,1125.87,1433.54,1120Zm37-191.69c-.95-2.47,1.08-7.21-4.26-7.57-5-.34-10.43,4.64-10.44,9,0,2.72,4.7,6.44,8.4,6.65C1467.57,936.57,1470.55,933,1470.58,928.34Zm-32.75-23.43a3.32,3.32,0,0,0,2.74-3.68c-.24-2.42-.35-5.23-3.77-5.53-2.29-.2-4.13.59-3.88,3.25S1434.14,904.17,1437.83,904.91Z" transform="translate(-870.8 -701.15)" style="fill:#090b08"/><path d="M870.89,1157.5c2.68.43,1.94-1.86,2.27-3.06,2.73-10.12,5.46-20.24,9.86-29.81,3.91-8.53,8.65-16.51,15.32-23.21,2.88-2.9,4.8-3.7,7.23,1,3.61,6.95,10.12,11.4,16.39,15.81,21.9,15.42,46.68,23.74,72.59,29.42,32.92,7.21,66.33,10.51,99.84,13.13a862.68,862.68,0,0,0,90.81,2.37c5.11-.14,8.29.52,9.89,5.74.6,2,2.36,3.59,3.75,5.23,6.12,7.21,6.93,14.23,2.2,22.48-4.82,8.43-11.93,15.15-17.57,23-1.08,1.5-3.1,2.58-2.66,4.93q-152.76,0-305.51.11c-3.95,0-4.53-1.11-4.5-4.69C871,1199.09,870.89,1178.3,870.89,1157.5Z" transform="translate(-870.8 -701.15)" style="fill:url(#a)"/><path d="M1185.8,1224.47c3.17-6.87,8.72-12,13.33-17.78,3.14-4,6.07-8,7.61-12.8,2.56-8,1.71-15.48-4.21-21.88-7.89-8.54-10-19.32-2.65-30.43,6-9.15,12.29-18.19,18-27.6,1.37-2.28,2.4-3,4.15-.32a42.46,42.46,0,0,0,9.17,9.8c.89.73,2,1.55,1.54,2.89-.67,2-1.79.43-2.74.21s-1.71-.08-2,.88c-.5,1.35.35,2.26,1.3,3a20.35,20.35,0,0,0,12.68,3.92,138,138,0,0,0,26.25-2.86,8.08,8.08,0,0,0,6-4.81c5.66-12.21,12.51-24,14.71-37.52.27-1.68.78-3.19,2.53-4,10.37-4.92,27.86-2.14,33,9.72a14.71,14.71,0,0,1,1.68,6.23c-.29,11.69-1,23.32-6.8,33.91-.72,1.32-1.39,2.66-2,4s-1,3.08.8,3.85c1.66.69,2.27-.86,2.94-2a61.84,61.84,0,0,0,8.6-28.41c.21-4,1.88-5.45,5.61-6.11,12.85-2.26,18,.52,21.64,12.94,4.85,16.64,1.89,31.61-10.54,44.22-.7.71-1.45,1.38-2.11,2.13-.86,1-2.08,2.1-.74,3.4,1.17,1.15,2.53.52,3.55-.45,3.75-3.55,7.61-7,10-11.75,1.23-2.45,2.72-4.44,5.73-3.39s2.54,3.92,2,6c-2.45,9.87-6.46,19-15.22,25-7.85,5.34-16,10.21-24,15.35-1.45.93-3.84,1.89-2.42,4.08,1.17,1.77,3.1.41,4.45-.45,8.87-5.59,17.75-11.18,26.51-16.93a19.08,19.08,0,0,0,6-6.62c2.41-4.25,6.24-4.39,10-2.9s4.5,5.26,3.68,8.89c-2,8.77-6.94,15.84-13.71,21.53-6,5-12.31,9.64-18.47,14.45-.89.69-2.09,1.2-1.8,2.69Z" transform="translate(-870.8 -701.15)" style="fill:#5c8d35"/><path d="M1345.76,1224.47c5.62-4.63,11.31-9.17,16.84-13.9A46.39,46.39,0,0,0,1377,1190c3.24-9.63.24-15.26-9.49-17.67-2.2-.55-2.21-1.46-1.48-3.13,1.53-3.5,3.08-7,3-11,0-2.4,1.87-2.29,3.47-2.68,12.26-3,24.64-5.47,36.4-10.34,11.5-4.76,21.47-11.38,28.36-21.92,2.13-3.26,4.12-3.56,7.29-1.7,11.37,6.65,23.54,11.48,35.84,16.19,16.51,6.32,30.51,16.8,43.2,29,1.14,1.1,1.75,3.37,4.13,2.71,0,17.16-.1,34.32.08,51.48,0,3-.6,3.59-3.58,3.58Q1435,1224.39,1345.76,1224.47Z" transform="translate(-870.8 -701.15)" style="fill:url(#b)"/><path d="M935.22,826c-1.53,10-5.89,19-9.56,28.28-.43,1.08-1,2.1-1.39,3.2a2,2,0,0,0,.93,2.56,1.85,1.85,0,0,0,2.55-.88,56.87,56.87,0,0,0,2.9-5.79c5.93-13.62,10-27.9,14.12-42.1a158.63,158.63,0,0,1,37.58-65.65c13-13.68,29.56-22.52,47.22-29.12a173.76,173.76,0,0,1,74-10.68,187.31,187.31,0,0,1,22.92,3.57C1084,708.44,1049,726.51,1016,750.93c-21.64,16-35.8,36.56-45,61.42-11.3,30.72-21.39,61.66-21.25,94.88.15,35.39,10.52,67.35,33.9,94.24,22.68,26.07,49.73,46.1,82,59.46,21.14,8.74,42.8,11.89,65.2,12.7,13.64.49,27.27,1.2,40.91,1.53,6.81.16,13.65-.1,20.45-.58,4-.28,6.47,1,8.45,4.47,4.9,8.7,10,17.26,15.25,25.78,1.19,2,.84,3.18-.36,4.89-3.64,5.17-7.35,10.32-10.51,15.78-2.12,3.68-4.73,4.33-8.6,3.81-25-3.36-50.1-4.1-75.25-3.38-24.47.69-48.94,1.38-73.42.51-15.35-.54-30.24-4.46-45.34-6.93-22.17-3.62-44.08-8.29-66-13.47-35.5-8.42-56-41.34-58.52-71.66-2.63-31.08-1.64-62.27-.65-93.36.77-24.17,9.24-46.84,18.62-69,8-18.84,21.38-33.11,36.92-45.75a8.11,8.11,0,0,1,1.78-.85Z" transform="translate(-870.8 -701.15)" style="fill:#5c8d35"/><path d="M1172.28,1070.74c-24.45-.54-48.91-.85-73.21-4.08-14.93-2-28.19-8.72-41.86-14.33-15.41-6.32-28.86-15.68-41.74-26.1-17.71-14.33-33.78-30.15-44.54-50.45a144.47,144.47,0,0,1-15.78-88.48c4.38-32.92,14.67-64.12,28.89-94,7.39-15.52,19.44-27.18,33-37.54,18.74-14.35,38.46-27,60.92-34.62,20.6-7,42.14-7,63.64-7.9,23.09-1,43.92,6.27,64.14,15.59,15.19,7,31,12.76,45.27,21.88,22.14,14.1,38.14,33.63,51.14,55.69,13.55,23,22.29,48,25.11,74.69a167,167,0,0,1-1,42.33c-2.79,18.55-6.2,37.06-10.52,55.31-5.12,21.67-14.65,41.35-30.72,57.33-5.19,5.16-10.35,10.36-15.73,15.32-2.19,2-1.69,3.75-.36,5.65,5.41,7.75,8.29,17.16,15.62,23.64,1.44,1.28,1.18,2.93.89,4.64-2.33,13.84-8.72,26.12-14.72,38.56-1.53,3.17-4.65,3.31-7.27,3.46-6.47.38-13,.14-19.47.18-1.86,0-3-1.25-4.31-2.24-13.51-10-22.37-23.9-29.5-38.49-6-12.25-13.12-19.23-27.42-16.13C1179.41,1071.35,1175.78,1070.74,1172.28,1070.74Zm-37-27.27c24.56-.79,49.11-5.69,72.1-16.55,19.91-9.41,38.51-20.69,53.39-37.71,23.57-27,34.32-58.64,35.6-93.66,1.54-41.91-17.19-76.29-44.62-105.72-24.35-26.12-55.44-41.32-91-47.09-35.36-5.74-69.35-3.4-101,15.13-13,7.6-25.71,15.79-34.93,27.85-10.43,13.66-18.07,29.08-25,44.81-7.41,16.9-10.36,35-14.35,52.87a114.31,114.31,0,0,0-.63,48.92c5,23.92,14.08,45.51,33.16,61.64,12.21,10.33,25.72,18.88,39.68,26.71C1081.59,1034.06,1106.74,1043,1135.27,1043.47Z" transform="translate(-870.8 -701.15)" style="fill:url(#c)"/><path d="M1307.3,705.67c28.6-.58,56,4.24,81.79,17.14,4.75,2.38,9.26,5.25,13.92,7.83,11.75,6.5,18,16.88,21,29.61,1.22,5.35,2.08,10.78,3.39,16.1.67,2.75-.3,4-2.72,4.87-5.62,2.08-11.14,4.42-16.77,6.47-14.32,5.19-27,13.73-40.77,20-15.7,7.12-32.48,9.51-49.3,11.91-4.33.61-5.37-2.32-6.72-5.19-11.27-23.93-27.73-43.84-48-60.57-8.33-6.89-18-12-27.74-16.74-3.6-1.78-4.46-3.24-.92-5.65,17.39-11.88,35.14-23,56.89-24.93C1296.65,706.05,1302,705.94,1307.3,705.67Z" transform="translate(-870.8 -701.15)" style="fill:#5c8d35"/><path d="M1372.27,1127.53c-8.52-.07-8.52-.07-11-8.51-4.39-15-10.84-19.18-26.14-16.79-2.44.38-4.26.69-4.91-2.83-3-16.25-18-23.1-31.1-20.24-9.61,2.1-13.33-2.37-17.37-8.52-4.44-6.77-4.28-6.89,3.72-8,29.48-4.05,59-7.6,88.38-12.6,15.62-2.65,31.53-2.33,47.29-.35,14.7,1.84,29.57,1.45,44.23,3.79,12.46,2,10,1.26,8,11-1.36,6.67-1.18,13.58-3.54,20.09-3.43,9.47-9.44,16-18.39,21.23-23.53,13.65-49.43,18.13-75.69,21.75A25.39,25.39,0,0,1,1372.27,1127.53Z" transform="translate(-870.8 -701.15)" style="fill:#5c8d35"/><path d="M1443.74,782.47c27.32-.42,44.67,14.45,56.9,37.07,2.48,4.6-1.91,3.67-3.72,3.81a259.35,259.35,0,0,0-35,5.26c-26,5.62-50.84,13.89-72.77,29.93-16.19,11.86-35.14,18.77-53.6,26.39-3,1.23-3.55.23-3.91-2.66-2.24-18.23-6.24-36-13.61-52.94-1.7-3.9-1.88-5.49,3.4-6a170.36,170.36,0,0,0,69.51-23,168.27,168.27,0,0,1,42.42-17.08C1436.81,782.32,1440.3,782.51,1443.74,782.47Z" transform="translate(-870.8 -701.15)" style="fill:#5c8d35"/><path d="M1490,938c1.37-17-1.41-32.52-6.27-47.92-5.09-16.15-19-20.47-33-16.53-15.66,4.4-28.44,14-37.59,27.47-9.48,14-16.41,29.31-21.71,45.35-1.53,4.62-2.59,9.38-1.32,14.22.71,2.69-.7,2.77-2.56,2.7-19.64-.69-39.28-1.3-58.32-7-3.33-1-4.36-2.3-3.5-6,2.8-12,5.12-24.08,5.59-36.44.1-2.55.65-4.21,3.58-5,28.78-7.75,56.07-19,81.1-35.37,19.19-12.53,40.75-17.52,63-20.71,10.4-1.49,20.72-3.19,31.26-1.22a8.08,8.08,0,0,1,5.59,3.58c7.67,10.83,6.83,22.92,5.37,35.07-.54,4.45-2,8.79-2.48,13.24C1516.84,920.93,1504.94,930.09,1490,938Z" transform="translate(-870.8 -701.15)" style="fill:url(#d)"/><path d="M1432.54,991.57c6.74-.81,13.45-1.79,20.13-3.11,14.12-2.78,26.72-9.07,38.95-16.26,3.13-1.85,5.11-2.29,5.39,2.25a10.62,10.62,0,0,0,1,3.35c1.77,4.23,1.79,7.84-2.67,10.65a7.17,7.17,0,0,0-3.5,6.33c.29,3.93-2.24,4.8-5,5.55-13,3.49-26.33,3.81-39.65,2.79-9.44-.73-18.78-2-28.34-.87-11.78,1.34-23.63-.15-35.39-1-23.11-1.7-45.82.51-68.35,5.53-1.36.31-3,1.69-4.09.1-.79-1.14.4-2.53,1-3.71a130.46,130.46,0,0,0,10.92-38.75c.52-4.22,1.81-5.53,6.39-4.11,15,4.67,30.62,6.12,46.3,6.42,12,.22,23.92.69,35.92.22,27.08-1.06,52-8.81,75.34-22.22,9.33-5.37,19.29-10,26.24-18.73.6-.75,1.44-1.64,2.52-1a4.69,4.69,0,0,1,2.4,4.14,24.78,24.78,0,0,1-3.41,13.39c-3.44,5.41-7.25,10.57-10.26,16.27-1.68,3.16-4.55,5.08-7.92,6.53a92.85,92.85,0,0,0-12.43,6.39c-15.07,9.32-31.72,13.71-49.09,15.42-6.43.63-12.9-.32-18.35-4.81-2.8-2.31-6.15-4-9.28-5.85-1-.6-2.26-1.2-3.13,0a2.25,2.25,0,0,0,.92,3.41c9.24,5.3,17.37,12.37,27,17,1.38.67,3.1,1.35,4.08-.14,1.16-1.74-.55-2.59-1.84-3.38C1433.58,993,1432.68,992.78,1432.54,991.57Z" transform="translate(-870.8 -701.15)" style="fill:#5c8d35"/><path d="M910.26,1100.13c12.34,5.92,25.27,10,38.53,13.39,17.44,4.39,35.19,7,52.87,10,12.78,2.16,25.4,5.31,38.35,6.4,12.43,1,24.86,1.88,37.36,1,7.13-.49,14.32-.26,21.48-.3,23-.15,45.92-1.69,68.87,0,9.44.71,18.85,1.85,28.28,2.67,2.92.26,3.49,1.4,2,3.8-3.89,6.23-8,12.36-7.11,20.29.2,1.88-1.54,1.86-2.87,1.86-16.15,0-32.31.13-48.45-.19-12-.23-24-.87-35.89-1.71-43.49-3-86.9-7-129-19.05-21.92-6.25-42.52-15.53-59.69-31.11-2.06-1.87-4.42-3.6-5.32-6.48C909.85,1100.55,910.06,1100.34,910.26,1100.13Z" transform="translate(-870.8 -701.15)" style="fill:#5c8d35"/><path d="M1298,1028.2c2.94-4.84,5.76-9.48,8.59-14.12a4.33,4.33,0,0,1,2.9-1.72,226.15,226.15,0,0,1,75.08-7.14c13.07.95,26.17,2.35,39.34.51,7.13-1,14.29.42,21.39,1.12,14,1.38,27.91.91,41.62-2.44,5.23-1.28,9.92-3.45,13.16-8.28,2.64-4,9.44-4.72,13.5-2.12,9.73,6.23,12.44,20.38,5.46,29.75-3.33,4.46-8.43,6.19-13.72,5.88-12.39-.71-24.55,1.43-36.8,2.3-22.85,1.63-45.5,1.82-67.79-4.71a187.2,187.2,0,0,0-52.13-7.61,128.58,128.58,0,0,0-43.6,7.05C1302.84,1027.42,1300.77,1028.69,1298,1028.2Z" transform="translate(-870.8 -701.15)" style="fill:#5c5c5c"/><path d="M1346.47,1023.54c21.37-.18,39.41,3.49,57.25,8.42,20.86,5.78,42.1,5.42,63.39,3.85,8.62-.63,17.21-1.61,25.83-2.19,6.25-.42,10,5.47,7.18,11.19-2.37,4.8-6.15,7.54-11.83,7.74-7.6.27-14.8-1.94-22.17-3.07-10.38-1.58-20.85-1.87-31.28-2.55-11.77-.77-23.44-2.56-35.3-2.53a247.38,247.38,0,0,0-49.48,5.34c-18.76,3.87-37.94,4.44-56.75,7.8-4.42.79-8.87,1.38-13.32,1.94-2.35.29-4.62.28-6-2.33s0-4.43,1.72-6.13q7.92-8,15.92-15.85a5.82,5.82,0,0,1,2.46-1.58C1312.22,1029,1329.92,1021.92,1346.47,1023.54Z" transform="translate(-870.8 -701.15)" style="fill:#5c5c5c"/><path d="M1331.88,897c-1.53-4.86,1.55-6.89,6.44-8.81,22.34-8.77,43.82-19.07,63.69-32.92,18-12.55,39.23-17.89,60.45-22.53a328.07,328.07,0,0,1,42.44-6.08c6.1-.52,7.72.62,9,6.62.78,3.73,1.2,7.54,1.67,11.33.34,2.67-.92,3.26-3.56,3.09-34.33-2.21-67.06,3.69-96.74,21.56-24,14.43-48.84,26.41-75.79,34.06C1331.77,905.49,1331.84,905.74,1331.88,897Z" transform="translate(-870.8 -701.15)" style="fill:#5c8d35"/><path d="M1433.54,1120c-2.68,5.84-7,10.11-12,13.65-12.22,8.63-26.35,12.43-40.66,15.71-2.43.56-5.14.48-7.29,1.54-4.72,2.34-7.76-1.76-11.64-2.51-1.64-.32-.53-1.91-.35-3,.63-3.59,1.51-7.17,1.82-10.79.22-2.53,1.4-3.12,3.52-3,12.61.9,24.71-2,36.86-4.72C1413.63,1124.81,1423.5,1122.66,1433.54,1120Z" transform="translate(-870.8 -701.15)" style="fill:#5c8d35"/><path d="M1470.58,928.34c0,4.67-3,8.23-6.3,8-3.7-.21-8.41-3.93-8.4-6.65,0-4.33,5.49-9.31,10.44-9C1471.66,921.13,1469.63,925.87,1470.58,928.34Z" transform="translate(-870.8 -701.15)" style="fill:#fcfcfc"/><path d="M1437.83,904.91c-3.69-.74-4.65-3.21-4.91-6s1.59-3.45,3.88-3.25c3.42.3,3.53,3.11,3.77,5.53A3.32,3.32,0,0,1,1437.83,904.91Z" transform="translate(-870.8 -701.15)" style="fill:#cfe5e7"/><path d="M934.65,825.38c.23-.16.57-.51.66-.45.55.35.23.7-.09,1Z" transform="translate(-870.8 -701.15)" style="fill:#5c8d35"/><path d="M909.63,1100.75c-.16-.25-.52-.62-.44-.74.38-.67.74-.21,1.07.12C910.06,1100.34,909.85,1100.55,909.63,1100.75Z" transform="translate(-870.8 -701.15)" style="fill:#5c8d35"/><path d="M1135.27,1043.47c-28.53-.46-53.68-9.41-77.53-22.8-14-7.83-27.47-16.38-39.68-26.71-19.08-16.13-28.18-37.72-33.16-61.64a114.31,114.31,0,0,1,.63-48.92c4-17.84,6.94-36,14.35-52.87,6.89-15.73,14.53-31.15,25-44.81,9.22-12.06,22-20.25,34.93-27.85,31.61-18.53,65.6-20.87,101-15.13,35.57,5.77,66.66,21,91,47.09,27.43,29.43,46.16,63.81,44.62,105.72-1.28,35-12,66.69-35.6,93.66-14.88,17-33.48,28.3-53.39,37.71C1184.38,1037.78,1159.83,1042.68,1135.27,1043.47Zm100.59-261.88-1-1.42-8.25-5.47c-8.74-8.61-19.84-13.34-30.81-18-18.84-8-38.85-11.09-59.16-12.71a127.07,127.07,0,0,0-66.79,12.47c-11.55,5.61-21.5,13.72-32.13,20.77-4.19,1.83-7,4.79-7.89,9.4a50.18,50.18,0,0,0-6.79,8.57c-15.88,23.73-25,50.14-31.11,77.77-2,9.25-4,18.5-5.18,27.93-.37,3-1.49,5.66.73,8.26a8.54,8.54,0,0,0-1.13,7.65c.25,7.72,2.92,15,4.46,22.42,5.21,25.29,18.29,45.27,39.53,60.17,12.59,8.84,26.12,15.85,39.57,23.15,32.66,17.72,67,20.09,102.65,12.21,15.39-3.41,29.51-10.1,43.64-16.92,26.77-12.92,46.51-32.88,60.8-58.59,2.18-3.91,4.22-7.94,5-12.44a3.58,3.58,0,0,0,.44-3.5,117.37,117.37,0,0,0,9.09-39.49c.21-1.42.43-2.84.64-4.26,1.31-14.54-.73-28.69-5-42.6-3.28-10.79-6.75-21.5-14-30.45l-2.49-3.93c-4.71-9.55-11.1-18-17.8-26.18-4.81-5.85-10-11.49-17-14.89Z" transform="translate(-870.8 -701.15)" style="fill:#090b08"/><path d="M1029.85,786.61c.87-4.61,3.7-7.57,7.89-9.4,1,2,2.38,1.1,3.79.54,21-8.41,42.92-12.41,65.26-14a140.22,140.22,0,0,1,56.82,7.3c30.52,10.71,56.4,27.87,74.89,55,10,14.65,21.43,28.56,27,45.68,2.19,6.76,6,10.21,12.28,11.92l.45.19-.38-.26c-.1-3.7-3-5.78-5-8.28-3.55-4.36-7.12-8.4-7.43-14.64-.19-4-1.75-7.89-3.57-11.74-4.16-8.8-9-17.36-12.65-26.28-6.31-15.36-12.18-30.82-21.56-44.65a6.5,6.5,0,0,1-1-3.28l8.25,5.47,1,1.42.08-.1a6.29,6.29,0,0,0,1,4.27c5.7,11.21,11.53,22.39,15.13,34.49,1.17,3.92,3.48,4.87,7,4.31,3.9-.63,7.78-1.33,11.67-2q1.24,2,2.48,3.93a22.77,22.77,0,0,0-4,.24c-12.43,2.84-13.64-1.1-7.33,13.18,2.4,5.44,6.49,10.59,6.61,16.48.16,7.41,4.06,12.33,8.13,17.55a63.56,63.56,0,0,1,6,8.51c1.29,2.38,3.58,5.2-.22,7.76-1,.66-.59,2.16-.41,3.31.94,6.18,5.85,5.64,10.22,6-.21,1.42-.43,2.84-.64,4.26-2.38.45-5.18-2.74-7.18,1.53-3.5,7.48-7.42,14.79-11.44,22-7.8,14-2.43,15.18,9.53,15.95a3.58,3.58,0,0,1-.44,3.5c-4.94-.21-10.41.68-14-3.63-2.63-3.16-3.45-1.2-4.82.73-3.55,5-6.76,10.17-10.81,14.84-14.91,17.22-30.05,34.06-49.84,46.07q-41.16,24.94-88.29,16.37c-29.5-5.39-54.81-19.41-76.83-39.5A235.69,235.69,0,0,1,993.31,928c-2.24-3.76-3.15-8.42-6.94-11.23a8.54,8.54,0,0,1,1.13-7.65c1.27.47,1.54,1.73,2,2.75,6.48,15.15,16,28.36,26.15,41.18,7.73,9.78,16,19.09,26.23,26.47l.32.14-.38-.07a5.43,5.43,0,0,0,.24-1.46c-2.34-23.1,1.78-45.47,8-67.51a65.37,65.37,0,0,1,17.26-29.38c9.45-9.24,20.93-14.92,33.35-18.37,34.61-9.63,69.85-15.7,105.91-14.23,16.19.66,31.13,5.69,41.7,19.3a74.4,74.4,0,0,1,15.67,42.92c.44,9,.3,17.93-2.36,27.86,1.68-1.49,2.58-1.91,2.87-2.59,4.82-11.17,11-21.66,16.39-32.54.54-1.1.94-2.13-.22-3.13-2-1.69-2.1-4.15-2.31-6.42-.38-4.29-2.58-6.75-6.47-8.51-2.85-1.3-6.6-1.75-7.66-5.71-5-18.44-16.55-33.22-26.86-48.73-18.55-27.9-44.35-46.06-75.8-56.53-35.61-11.86-71-7.73-106,2.57C1046.76,779.71,1038.38,783.43,1029.85,786.61Zm106.44,103a8,8,0,0,0-7.43,4.47c-2,3.69-.1,6.85,2,9.65,7.84,10.35,18.11,17.56,30,22.45a99.5,99.5,0,0,0,19.87,6.26c4,.72,5.83-.86,5.56-5.2a17.45,17.45,0,0,0-5-11.6,119,119,0,0,0-27.07-21.09A37.16,37.16,0,0,0,1136.29,889.66Zm23.23,119.64a14.1,14.1,0,0,0,3,0c3.29-.72,7.54,0,8.94-4.1s.35-7.9-2.49-11.16a25.7,25.7,0,0,0-16.8-8.83,9.79,9.79,0,0,0-10.75,7c-1.27,4.88,1.63,13.9,5.43,15C1150.91,1008.38,1155.12,1009.66,1159.52,1009.3Zm85.13-64.39c-6,3.51-8.73,8.94-9.74,15.43C1240.28,956.53,1244.06,951.72,1244.65,944.91Z" transform="translate(-870.8 -701.15)" style="fill:#5c5c5c"/><path d="M1029.85,786.61c8.53-3.18,16.91-6.9,25.63-9.46,35.07-10.3,70.43-14.43,106-2.57,31.45,10.47,57.25,28.63,75.8,56.53,10.31,15.51,21.91,30.29,26.86,48.73,1.06,4,4.81,4.41,7.66,5.71,3.89,1.76,6.09,4.22,6.47,8.51.21,2.27.35,4.73,2.31,6.42,1.16,1,.76,2,.22,3.13-5.39,10.88-11.57,21.37-16.39,32.54-.29.68-1.19,1.1-2.87,2.59,2.66-9.93,2.8-18.89,2.36-27.86A74.4,74.4,0,0,0,1248.27,868c-10.57-13.61-25.51-18.64-41.7-19.3-36.06-1.47-71.3,4.6-105.91,14.23-12.42,3.45-23.9,9.13-33.35,18.37a65.37,65.37,0,0,0-17.26,29.38c-6.24,22-10.36,44.41-8,67.51a5.43,5.43,0,0,1-.24,1.46l.06-.07c-10.2-7.38-18.5-16.69-26.23-26.47-10.11-12.82-19.67-26-26.15-41.18-.43-1-.7-2.28-2-2.75-2.22-2.6-1.1-5.3-.73-8.26C988,891.45,989.91,882.2,992,873c6.1-27.63,15.23-54,31.11-77.77A50.18,50.18,0,0,1,1029.85,786.61Z" transform="translate(-870.8 -701.15)" style="fill:#cfe5e7"/><path d="M986.37,916.79c3.79,2.81,4.7,7.47,6.94,11.23a235.69,235.69,0,0,0,44.15,53.65c22,20.09,47.33,34.11,76.83,39.5q47.09,8.61,88.29-16.37c19.79-12,34.93-28.85,49.84-46.07,4-4.67,7.26-9.86,10.81-14.84,1.37-1.93,2.19-3.89,4.82-.73,3.57,4.31,9,3.42,14,3.63-.79,4.5-2.83,8.53-5,12.44-14.29,25.71-34,45.67-60.8,58.59-14.13,6.82-28.25,13.51-43.64,16.92-35.62,7.88-70,5.51-102.65-12.21-13.45-7.3-27-14.31-39.57-23.15-21.24-14.9-34.32-34.88-39.53-60.17C989.29,931.75,986.62,924.51,986.37,916.79Z" transform="translate(-870.8 -701.15)" style="fill:#5c8d35"/><path d="M1277.75,883.64c-6.29-1.71-10.09-5.16-12.28-11.92-5.54-17.12-17-31-27-45.68-18.49-27.11-44.37-44.27-74.89-55a140.22,140.22,0,0,0-56.82-7.3c-22.34,1.58-44.31,5.58-65.26,14-1.41.56-2.79,1.48-3.79-.54,10.63-7.05,20.58-15.16,32.13-20.77A127.07,127.07,0,0,1,1136.66,744c20.31,1.62,40.32,4.67,59.16,12.71,11,4.68,22.07,9.41,30.81,18a6.5,6.5,0,0,0,1,3.28c9.38,13.83,15.25,29.29,21.56,44.65,3.66,8.92,8.49,17.48,12.65,26.28,1.82,3.85,3.38,7.77,3.57,11.74.31,6.24,3.88,10.28,7.43,14.64,2,2.5,4.92,4.58,5,8.28Z" transform="translate(-870.8 -701.15)" style="fill:#5c8d35"/><path d="M1292.2,899.54c-4.37-.38-9.28.16-10.22-6-.18-1.15-.57-2.65.41-3.31,3.8-2.56,1.51-5.38.22-7.76a63.56,63.56,0,0,0-6-8.51c-4.07-5.22-8-10.14-8.13-17.55-.12-5.89-4.21-11-6.61-16.48-6.31-14.28-5.1-10.34,7.33-13.18a22.77,22.77,0,0,1,4-.24c7.29,9,10.76,19.66,14,30.45C1291.47,870.85,1293.51,885,1292.2,899.54Z" transform="translate(-870.8 -701.15)" style="fill:#5c8d35"/><path d="M1282.47,943.29c-12-.77-17.33-1.93-9.53-15.95,4-7.22,7.94-14.53,11.44-22,2-4.27,4.8-1.08,7.18-1.53A117.37,117.37,0,0,1,1282.47,943.29Z" transform="translate(-870.8 -701.15)" style="fill:#cfe5e7"/><path d="M1270.72,822.56c-3.89.67-7.77,1.37-11.67,2-3.54.56-5.85-.39-7-4.31-3.6-12.1-9.43-23.28-15.13-34.49a6.29,6.29,0,0,1-1-4.27c7,3.4,12.17,9,17,14.89C1259.62,804.56,1266,813,1270.72,822.56Z" transform="translate(-870.8 -701.15)" style="fill:#5c8d35"/><path d="M1235.86,781.59l-1-1.42Z" transform="translate(-870.8 -701.15)" style="fill:#5c8d35"/><path d="M1136.29,889.66a37.16,37.16,0,0,1,18,4.94,119,119,0,0,1,27.07,21.09,17.45,17.45,0,0,1,5,11.6c.27,4.34-1.58,5.92-5.56,5.2a99.5,99.5,0,0,1-19.87-6.26c-11.9-4.89-22.17-12.1-30-22.45-2.13-2.8-4-6-2-9.65A8,8,0,0,1,1136.29,889.66Z" transform="translate(-870.8 -701.15)" style="fill:#cfe5e7"/><path d="M1159.52,1009.3c-4.4.36-8.61-.92-12.69-2.12-3.8-1.11-6.7-10.13-5.43-15a9.79,9.79,0,0,1,10.75-7A25.7,25.7,0,0,1,1169,994c2.84,3.26,3.85,7.17,2.49,11.16s-5.65,3.38-8.94,4.1A14.1,14.1,0,0,1,1159.52,1009.3Z" transform="translate(-870.8 -701.15)" style="fill:#cfe5e7"/><path d="M1244.65,944.91c-.59,6.81-4.37,11.62-9.74,15.43C1235.92,953.85,1238.67,948.42,1244.65,944.91Z" transform="translate(-870.8 -701.15)" style="fill:#cfe5e7"/><path d="M1041.79,979.61l.38.07-.32-.14Z" transform="translate(-870.8 -701.15)" style="fill:#cfe5e7"/><path d="M1277.82,883.57l.38.26-.45-.19Z" transform="translate(-870.8 -701.15)" style="fill:#5c8d35"/></svg>